<?xml version="1.0" encoding="UTF-8" standalone="no"?>
<!-- Created with Inkscape (http://www.inkscape.org/) -->
<svg xmlns:dc="http://purl.org/dc/elements/1.1/" xmlns:cc="http://creativecommons.org/ns#" xmlns:rdf="http://www.w3.org/1999/02/22-rdf-syntax-ns#" xmlns:svg="http://www.w3.org/2000/svg" xmlns="http://www.w3.org/2000/svg" xmlns:xlink="http://www.w3.org/1999/xlink" version="1.0" width="48" height="48" id="svg2">
  <metadata id="metadata7">
    <rdf:RDF>
      <cc:Work rdf:about="">
        <dc:format>image/svg+xml</dc:format>
        <dc:type rdf:resource="http://purl.org/dc/dcmitype/StillImage"/>
        <dc:title/>
      </cc:Work>
    </rdf:RDF>
  </metadata>
  <defs id="defs5">
    <linearGradient id="linearGradient5135">
      <stop id="stop5137" style="stop-color:#3f3f3f;stop-opacity:1" offset="0"/>
      <stop id="stop2163" style="stop-color:#ffffff;stop-opacity:1" offset="1"/>
    </linearGradient>
    <linearGradient x1="40.605217" y1="12.89941" x2="17.594276" y2="36.913795" id="linearGradient3171" xlink:href="#linearGradient5135" gradientUnits="userSpaceOnUse" gradientTransform="matrix(0.9637557,0,0,0.7931017,-1.7786882,-2.5602451)"/>
    <clipPath id="clipPath3460">
      <path d="m 25.069881,41.130496 c 2.009508,-0.708782 2.625288,-2.926039 3.531618,-4.751657 1.062023,-1.113794 1.980231,1.454865 4.051545,1.217263 1.426334,-0.162405 3.694776,-2.570638 2.811061,-4.138277 -1.942138,-1.699218 -3.325246,0.49569 -4.531188,-0.918009 -0.184112,-1.52294 4.010533,-2.621164 3.027396,-3.732523 -1.793631,-1.332624 -5.134544,-0.985102 -8.344029,-2.221525 -1.432182,-1.618182 3.236193,-0.944258 2.208715,-2.524461 -0.420789,-0.634509 -3.213765,-2.1797 -6.380729,-1.514677 -2.033822,0.67495 0.355857,2.738281 -2.822245,2.524461 -2.173237,-0.270394 -5.866553,-1.687286 -7.975909,-1.009785 -1.6343088,1.118443 -2.4428745,2.680125 -2.5768317,3.231311 -0.332092,1.706123 3.6074277,0.561742 4.1809617,1.006103 1.697299,1.399125 -1.927111,3.13369 -2.9516624,2.54471 -0.4099508,-0.82499 -1.402807,-1.254576 -2.7666661,-0.96445 -1.3844367,0.08577 -3.7092857,4.209632 -3.0161875,5.293639 1.1617336,1.353652 7.451904,3.066425 9.008341,2.87229 2.036634,0.05236 0.918158,-0.840179 1.064435,-1.984026 0.313539,-1.455668 7.576276,0.610365 6.029579,1.59711 -2.070609,0.382212 -2.643022,1.091778 -1.883419,1.819454 1.376821,1.167016 6.171138,2.205385 7.335215,1.653049 z" id="path3462" style="opacity:0.14084509;fill:#0000ff;fill-opacity:1;fill-rule:evenodd;stroke:#000000;stroke-width:0.52972847;stroke-linecap:butt;stroke-linejoin:miter;stroke-miterlimit:4;stroke-opacity:1;stroke-dasharray:none;display:inline"/>
    </clipPath>
    <linearGradient x1="22.804193" y1="29.992498" x2="22.89258" y2="20.668289" id="linearGradient3458" xlink:href="#linearGradient3452" gradientUnits="userSpaceOnUse"/>
    <radialGradient cx="128.72601" cy="228.36729" r="105.21568" fx="128.72601" fy="228.36729" id="radialGradient4068" xlink:href="#linearGradient3166" gradientUnits="userSpaceOnUse" gradientTransform="matrix(0.1418664,0,0,0.08089297,2.1848301,-9.1768846)"/>
    <linearGradient id="linearGradient2671">
      <stop id="stop2673" style="stop-color:#3f3f3f;stop-opacity:1" offset="0"/>
      <stop id="stop5139" style="stop-color:#ffffff;stop-opacity:1" offset="1"/>
    </linearGradient>
    <linearGradient id="linearGradient3166">
      <stop id="stop3168" style="stop-color:#676767;stop-opacity:1" offset="0"/>
      <stop id="stop3170" style="stop-color:#656565;stop-opacity:0" offset="1"/>
    </linearGradient>
    <linearGradient id="linearGradient3452">
      <stop id="stop3454" style="stop-color:#020202;stop-opacity:1" offset="0"/>
      <stop id="stop3456" style="stop-color:#010101;stop-opacity:0" offset="1"/>
    </linearGradient>
    <linearGradient x1="40.605217" y1="12.89941" x2="17.594276" y2="36.913795" id="linearGradient2409" xlink:href="#linearGradient5135" gradientUnits="userSpaceOnUse" gradientTransform="matrix(0.9637557,0,0,0.7931017,-1.7786882,-2.5602451)"/>
    <filter x="-0.12703244" y="-0.16318549" width="1.2540649" height="1.326371" color-interpolation-filters="sRGB" id="filter5735">
      <feGaussianBlur id="feGaussianBlur5737" stdDeviation="12.915397"/>
    </filter>
    <linearGradient id="linearGradient5641">
      <stop id="stop5643" style="stop-color:#b5b5b5;stop-opacity:1" offset="0"/>
      <stop id="stop5647" style="stop-color:#868686;stop-opacity:1" offset="0.5"/>
      <stop id="stop5645" style="stop-color:#c7c7c7;stop-opacity:1" offset="1"/>
    </linearGradient>
    <linearGradient id="linearGradient5966">
      <stop id="stop5968" style="stop-color:#e3e3e3;stop-opacity:1" offset="0"/>
      <stop id="stop5970" style="stop-color:#b2b2b2;stop-opacity:1" offset="0.5"/>
      <stop id="stop5972" style="stop-color:#d6d6d6;stop-opacity:1" offset="1"/>
    </linearGradient>
    <linearGradient id="linearGradient3128">
      <stop id="stop3130" style="stop-color:#b5b5b5;stop-opacity:1" offset="0"/>
      <stop id="stop3132" style="stop-color:#868686;stop-opacity:1" offset="0.5"/>
      <stop id="stop3134" style="stop-color:#c7c7c7;stop-opacity:1" offset="1"/>
    </linearGradient>
    <linearGradient id="linearGradient3137">
      <stop id="stop3139" style="stop-color:#b5b5b5;stop-opacity:1" offset="0"/>
      <stop id="stop3141" style="stop-color:#868686;stop-opacity:1" offset="0.5"/>
      <stop id="stop3143" style="stop-color:#c7c7c7;stop-opacity:1" offset="1"/>
    </linearGradient>
    <linearGradient id="linearGradient3146">
      <stop id="stop3148" style="stop-color:#b5b5b5;stop-opacity:1" offset="0"/>
      <stop id="stop3150" style="stop-color:#868686;stop-opacity:1" offset="0.5"/>
      <stop id="stop3152" style="stop-color:#c7c7c7;stop-opacity:1" offset="1"/>
    </linearGradient>
    <linearGradient id="linearGradient5615">
      <stop id="stop5617" style="stop-color:#717171;stop-opacity:1" offset="0"/>
      <stop id="stop5619" style="stop-color:#cccccc;stop-opacity:1" offset="1"/>
    </linearGradient>
    <linearGradient id="linearGradient3159">
      <stop id="stop3161" style="stop-color:#b5b5b5;stop-opacity:1" offset="0"/>
      <stop id="stop3163" style="stop-color:#868686;stop-opacity:1" offset="0.5"/>
      <stop id="stop3165" style="stop-color:#c7c7c7;stop-opacity:1" offset="1"/>
    </linearGradient>
    <linearGradient id="linearGradient3168">
      <stop id="stop3170-1" style="stop-color:#b5b5b5;stop-opacity:1" offset="0"/>
      <stop id="stop3172" style="stop-color:#868686;stop-opacity:1" offset="0.5"/>
      <stop id="stop3174" style="stop-color:#c7c7c7;stop-opacity:1" offset="1"/>
    </linearGradient>
    <linearGradient id="linearGradient5579">
      <stop id="stop5581" style="stop-color:#eddee1;stop-opacity:1" offset="0"/>
      <stop id="stop5583" style="stop-color:#cb9ea7;stop-opacity:1" offset="1"/>
    </linearGradient>
    <linearGradient id="linearGradient3181">
      <stop id="stop3183" style="stop-color:#b5b5b5;stop-opacity:1" offset="0"/>
      <stop id="stop3185" style="stop-color:#868686;stop-opacity:1" offset="0.5"/>
      <stop id="stop3187" style="stop-color:#c7c7c7;stop-opacity:1" offset="1"/>
    </linearGradient>
    <linearGradient id="linearGradient5597">
      <stop id="stop5599" style="stop-color:#717171;stop-opacity:1" offset="0"/>
      <stop id="stop5601" style="stop-color:#717171;stop-opacity:0" offset="1"/>
    </linearGradient>
    <linearGradient id="linearGradient3201">
      <stop id="stop3203" style="stop-color:#717171;stop-opacity:1" offset="0"/>
      <stop id="stop3205" style="stop-color:#cccccc;stop-opacity:1" offset="1"/>
    </linearGradient>
    <linearGradient id="linearGradient3208">
      <stop id="stop3210" style="stop-color:#717171;stop-opacity:1" offset="0"/>
      <stop id="stop3212" style="stop-color:#cccccc;stop-opacity:1" offset="1"/>
    </linearGradient>
    <linearGradient id="linearGradient3215">
      <stop id="stop3217" style="stop-color:#717171;stop-opacity:1" offset="0"/>
      <stop id="stop3219" style="stop-color:#cccccc;stop-opacity:1" offset="1"/>
    </linearGradient>
    <linearGradient id="linearGradient5693">
      <stop id="stop5695" style="stop-color:#c9c9c9;stop-opacity:1" offset="0"/>
      <stop id="stop5701" style="stop-color:#939393;stop-opacity:1" offset="0.32142857"/>
      <stop id="stop5703" style="stop-color:#d1d1d1;stop-opacity:1" offset="0.75"/>
      <stop id="stop5697" style="stop-color:#b2b2b2;stop-opacity:1" offset="1"/>
    </linearGradient>
    <linearGradient id="linearGradient5707">
      <stop id="stop5709" style="stop-color:#e8e8e8;stop-opacity:1" offset="0"/>
      <stop id="stop5711" style="stop-color:#717171;stop-opacity:0" offset="1"/>
    </linearGradient>
    <linearGradient id="linearGradient5887">
      <stop id="stop5889" style="stop-color:#ffffff;stop-opacity:1" offset="0"/>
      <stop id="stop5891" style="stop-color:#ffffff;stop-opacity:0" offset="1"/>
    </linearGradient>
    <linearGradient id="linearGradient5897">
      <stop id="stop5899" style="stop-color:#cecece;stop-opacity:1" offset="0"/>
      <stop id="stop5901" style="stop-color:#a0a0a0;stop-opacity:1" offset="1"/>
    </linearGradient>
    <linearGradient id="linearGradient5978">
      <stop id="stop5980" style="stop-color:#f5f5f5;stop-opacity:1" offset="0"/>
      <stop id="stop5982" style="stop-color:#c7c7c7;stop-opacity:1" offset="1"/>
    </linearGradient>
    <linearGradient id="linearGradient3244">
      <stop id="stop3246" style="stop-color:#f5f5f5;stop-opacity:1" offset="0"/>
      <stop id="stop3248" style="stop-color:#c7c7c7;stop-opacity:1" offset="1"/>
    </linearGradient>
    <linearGradient id="linearGradient5753">
      <stop id="stop5755" style="stop-color:#ffffff;stop-opacity:1" offset="0"/>
      <stop id="stop5757" style="stop-color:#ffffff;stop-opacity:0" offset="1"/>
    </linearGradient>
    <linearGradient id="linearGradient5745">
      <stop id="stop5747" style="stop-color:#ffffff;stop-opacity:1" offset="0"/>
      <stop id="stop5749" style="stop-color:#ffffff;stop-opacity:0" offset="1"/>
    </linearGradient>
    <linearGradient x1="57.21373" y1="179.57538" x2="93.290894" y2="177.23959" id="linearGradient3585" xlink:href="#linearGradient5641" gradientUnits="userSpaceOnUse" gradientTransform="matrix(0.201008,0,0,0.2009534,-42.598294,-9.700064)"/>
    <linearGradient x1="38.890877" y1="145.8279" x2="59.220192" y2="145.88857" id="linearGradient3587" xlink:href="#linearGradient5966" gradientUnits="userSpaceOnUse" gradientTransform="matrix(0.201008,0,0,0.2009534,-42.598294,-9.700064)"/>
    <linearGradient x1="80.96373" y1="195.32538" x2="108.54089" y2="195.73959" id="linearGradient3589" xlink:href="#linearGradient5641" gradientUnits="userSpaceOnUse" gradientTransform="matrix(0.201008,0,0,0.2009534,-42.598294,-9.700064)"/>
    <linearGradient x1="199.5" y1="114.25" x2="228.25" y2="113" id="linearGradient3591" xlink:href="#linearGradient5641" gradientUnits="userSpaceOnUse" gradientTransform="matrix(0.201008,0,0,0.2009534,-42.598294,-9.700064)"/>
    <linearGradient x1="192" y1="146.25" x2="225.75" y2="145.25" id="linearGradient3593" xlink:href="#linearGradient5641" gradientUnits="userSpaceOnUse" gradientTransform="matrix(0.201008,0,0,0.2009534,-42.598294,-9.700064)"/>
    <linearGradient x1="184" y1="166" x2="215.5" y2="170.25" id="linearGradient3595" xlink:href="#linearGradient5615" gradientUnits="userSpaceOnUse" gradientTransform="matrix(0.201008,0,0,0.2009534,-42.598294,-9.700064)"/>
    <linearGradient x1="192" y1="146.25" x2="225.75" y2="145.25" id="linearGradient3597" xlink:href="#linearGradient5641" gradientUnits="userSpaceOnUse" gradientTransform="matrix(0.201008,0,0,0.2009534,-42.598294,-9.700064)"/>
    <linearGradient x1="116.834" y1="194.83527" x2="145.664" y2="194.83527" id="linearGradient3599" xlink:href="#linearGradient5641" gradientUnits="userSpaceOnUse" gradientTransform="matrix(0.201008,0,0,0.2009534,-42.598294,-9.700064)"/>
    <linearGradient x1="134.34375" y1="71.5" x2="171.65625" y2="212.5" id="linearGradient3601" xlink:href="#linearGradient5579" gradientUnits="userSpaceOnUse" gradientTransform="matrix(0.201008,0,0,0.2009534,-42.598294,-14.92485)"/>
    <linearGradient x1="153.25" y1="202.75" x2="184.25" y2="201.75" id="linearGradient3603" xlink:href="#linearGradient5641" gradientUnits="userSpaceOnUse" gradientTransform="matrix(0.201008,0,0,0.2009534,-42.598294,-9.700064)"/>
    <radialGradient cx="-88.308083" cy="73.568199" r="101.65625" fx="-88.308083" fy="73.568199" id="radialGradient3605" xlink:href="#linearGradient5597" gradientUnits="userSpaceOnUse" gradientTransform="matrix(0.1380877,0.04546623,-0.023832,0.07234204,-21.012453,8.1839412)"/>
    <radialGradient cx="147.50781" cy="165.91266" r="101.65625" fx="147.50781" fy="165.91266" id="radialGradient3607" xlink:href="#linearGradient5597" gradientUnits="userSpaceOnUse" gradientTransform="matrix(0.1440197,0.05930378,-0.02901487,0.07042458,-18.826812,-3.9077538)"/>
    <linearGradient x1="172.42566" y1="202.57323" x2="152.25" y2="202.57323" id="linearGradient3609" xlink:href="#linearGradient5615" gradientUnits="userSpaceOnUse" gradientTransform="matrix(0.201008,0,0,0.2009534,-42.598294,-9.700064)"/>
    <linearGradient x1="201" y1="189" x2="145" y2="212.5" id="linearGradient3611" xlink:href="#linearGradient5615" gradientUnits="userSpaceOnUse" gradientTransform="matrix(0.201008,0,0,0.2009534,-42.598294,-9.700064)"/>
    <linearGradient x1="228.5" y1="149.5" x2="141" y2="202.5" id="linearGradient3613" xlink:href="#linearGradient5615" gradientUnits="userSpaceOnUse" gradientTransform="matrix(0.201008,0,0,0.2009534,-42.598294,-9.700064)"/>
    <linearGradient x1="65" y1="95" x2="190" y2="95" id="linearGradient3615" xlink:href="#linearGradient5693" gradientUnits="userSpaceOnUse" gradientTransform="matrix(0.1989978,0,0,0.2009534,-42.216379,-9.700064)"/>
    <radialGradient cx="69.515442" cy="48.968105" r="101.65625" fx="69.515442" fy="48.968105" id="radialGradient3617" xlink:href="#linearGradient5707" gradientUnits="userSpaceOnUse" gradientTransform="matrix(0.2830276,-0.2829508,0.1470958,0.1470559,-37.113812,16.13174)"/>
    <linearGradient x1="147.25" y1="195.625" x2="148.75" y2="218.875" id="linearGradient3619" xlink:href="#linearGradient5887" gradientUnits="userSpaceOnUse" gradientTransform="matrix(0.201008,0,0,0.2009534,-42.598294,-9.9010169)"/>
    <linearGradient x1="115" y1="205.75" x2="124.5" y2="206" id="linearGradient3621" xlink:href="#linearGradient5897" gradientUnits="userSpaceOnUse" gradientTransform="matrix(0.201008,0,0,0.2009534,-42.598294,-9.700064)"/>
    <linearGradient x1="63.213203" y1="180.75673" x2="83.841362" y2="193.125" id="linearGradient3623" xlink:href="#linearGradient5978" gradientUnits="userSpaceOnUse" gradientTransform="matrix(0.201008,0,0,0.2009534,-42.598294,-9.700064)"/>
    <linearGradient x1="42" y1="172.625" x2="55.910641" y2="172.625" id="linearGradient3625" xlink:href="#linearGradient5978" gradientUnits="userSpaceOnUse" gradientTransform="matrix(0.201008,0,0,0.2009534,-42.598294,-9.700064)"/>
    <linearGradient x1="31.071491" y1="36.879368" x2="30.94672" y2="11.32831" id="linearGradient3627" xlink:href="#linearGradient5753" gradientUnits="userSpaceOnUse" gradientTransform="matrix(1.0122267,0,0,1.0123098,-41.898545,-8.475996)"/>
    <linearGradient x1="26.934336" y1="5.5277748" x2="26.934338" y2="28.598352" id="linearGradient3629" xlink:href="#linearGradient5745" gradientUnits="userSpaceOnUse" gradientTransform="matrix(1.0437257,0,0,1.0442057,-42.677419,-9.1497379)"/>
    <clipPath id="SVGID_2_">
      <path d="m 205.34863,-40.52466 -15.87891,4.53467 c -0.32129,0.0918 -0.65332,0.1582 -0.99512,0.19824 l 15.87793,-4.53516 c 0.34181,-0.03906 0.67481,-0.10595 0.9961,-0.19775 z" id="use6664"/>
    </clipPath>
    <clipPath id="SVGID_4_">
      <path d="m 185.35059,-35.33667 15.87891,-4.53516 c 0.36914,-0.10547 0.74414,-0.18164 1.12012,-0.22461 l -15.87793,4.53418 c -0.37696,0.04395 -0.75099,0.11914 -1.1211,0.22559 z" id="use6680"/>
    </clipPath>
    <clipPath id="SVGID_6_">
      <path d="m 153.12305,-108.4646 c 5.29297,-1.51172 10.58594,-3.02295 15.87891,-4.53467 -1.30078,0.37158 -2.49316,1.16553 -3.37109,2.3584 l -15.87793,4.53467 c 0.87792,-1.19336 2.06933,-1.98731 3.37011,-2.3584 z" id="use6692"/>
    </clipPath>
    <clipPath id="SVGID_8_">
      <path d="m 159.45996,-105.47144 -15.87793,4.53467 c 1.85156,-0.52881 3.54785,-1.60205 4.64453,-3.09473 l 15.87891,-4.53467 c -1.09766,1.49268 -2.79395,2.56593 -4.64551,3.09473 z" id="use6716"/>
    </clipPath>
    <clipPath id="SVGID_10_">
      <path d="m 187.51465,10.69556 -15.87891,4.53418 c -0.33203,0.09473 -0.6709,0.16211 -1.01465,0.20215 -1.68555,0.19336 -3.45996,-0.28516 -4.91992,-1.48438 L 181.5791,9.41333 c 1.45996,1.19824 3.23535,1.67773 4.9209,1.4834 0.34277,-0.03906 0.68262,-0.10645 1.01465,-0.20117 z" id="use6736"/>
    </clipPath>
    <clipPath id="SVGID_12_">
      <path d="m 156.03906,11.22192 c 5.29297,-1.51172 10.58496,-3.02344 15.87793,-4.53516 0.46973,-0.13379 0.95508,-0.22852 1.44824,-0.28613 2.40625,-0.27637 4.99902,0.36426 6.83691,1.87695 l -15.87793,4.53516 c -1.83789,-1.51367 -4.43164,-2.15332 -6.83789,-1.87695 -0.49316,0.05664 -0.97851,0.15137 -1.44726,0.28613 z" id="use6752"/>
    </clipPath>
    <clipPath id="SVGID_14_">
      <path d="m 146.86914,-5.52612 -15.87891,4.53418 c 18.375,-5.24707 30.47754,-24.03516 27.73145,-44.7041 -3.03613,-22.854 -23.0752,-39.35693 -44.75391,-36.86426 -2.07324,0.23828 -4.08691,0.64209 -6.03027,1.19678 l 15.87891,-4.53467 c 1.94336,-0.55469 3.95605,-0.95801 6.0293,-1.19678 21.67871,-2.49268 41.71875,14.01025 44.75488,36.86426 2.74511,20.66943 -9.35645,39.45654 -27.73145,44.70459 z" id="use6764"/>
    </clipPath>
    <clipPath id="SVGID_16_">
      <path d="m 101.32422,-118.91772 15.87793,-4.53418 c -3.07324,0.87744 -5.1123,4.03809 -4.6543,7.48926 l -15.87793,4.53467 c -0.45898,-3.45118 1.58106,-6.61182 4.6543,-7.48975 z" id="use6788"/>
    </clipPath>
    <clipPath id="SVGID_18_">
      <path d="m 152.65527,31.11938 -15.87793,4.53418 c -0.32129,0.0918 -0.6543,0.1582 -0.99609,0.19824 l 15.87891,-4.53516 c 0.34179,-0.03905 0.67382,-0.10546 0.99511,-0.19726 z" id="use6814"/>
    </clipPath>
    <clipPath id="SVGID_20_">
      <path d="m 107.83496,-103.51538 -15.87891,4.53418 c 3.2959,-1.5459 5.58008,-5.9248 5.07324,-9.73828 l 15.87891,-4.53467 c 0.50586,3.81396 -1.77734,8.19238 -5.07324,9.73877 z" id="use6826"/>
    </clipPath>
    <clipPath id="SVGID_22_">
      <path d="m 98.66309,-98.46948 -15.87793,4.53467 c 0.85156,-0.24316 1.65039,-0.61377 2.34863,-1.11377 l 15.87793,-4.53467 c -0.69727,0.5 -1.49609,0.8706 -2.34863,1.11377 z" id="use6854"/>
    </clipPath>
    <clipPath id="SVGID_24_">
      <path d="m 138.98242,32.77466 -15.87891,4.53418 c -3.61719,0.41602 -6.98926,-2.3623 -7.49609,-6.17578 l 15.87891,-4.53418 c 0.50586,3.8125 3.8789,6.59179 7.49609,6.17578 z" id="use6876"/>
    </clipPath>
    <clipPath id="SVGID_26_">
      <path d="m 131.25586,24.87036 -15.87793,4.53418 c -0.50488,-3.80469 -3.86816,-7.54297 -7.46191,-8.30566 l 15.87891,-4.53516 c 3.59374,0.7627 6.95605,4.50195 7.46093,8.30664 z" id="use6890"/>
    </clipPath>
    <clipPath id="SVGID_28_">
      <path d="m 66.46875,-98.50073 c 5.29297,-1.51172 10.58496,-3.02295 15.87793,-4.53467 -1.2998,0.37158 -2.49219,1.16553 -3.36914,2.3584 l -15.87891,4.53467 c 0.87793,-1.19336 2.06934,-1.98731 3.37012,-2.3584 z" id="use6908"/>
    </clipPath>
    <clipPath id="SVGID_30_">
      <path d="m 93.97852,18.36841 c 5.29297,-1.51172 10.58594,-3.02344 15.87891,-4.53516 0.50586,-0.14453 1.02344,-0.24805 1.54492,-0.30762 1.4043,-0.16113 2.83008,-0.0059 4.09473,0.51855 l -15.87793,4.53418 c -1.26563,-0.52441 -2.69043,-0.67969 -4.0957,-0.51758 -0.5215,0.05958 -1.03907,0.1631 -1.54493,0.30763 z" id="use6928"/>
    </clipPath>
    <clipPath id="SVGID_32_">
      <path d="m 77.50195,-67.98657 -15.87793,4.53467 c 1.25098,-3.56299 -0.1084,-8.43652 -3.01855,-10.83398 l 15.87891,-4.53467 c 2.91015,2.39745 4.26953,7.27099 3.01757,10.83398 z" id="use6944"/>
    </clipPath>
    <clipPath id="SVGID_34_">
      <path d="m 72.56641,-80.40015 -15.87891,4.53467 c -2.90918,-2.39746 -3.49512,-6.80762 -1.30176,-9.80127 l 15.87891,-4.53418 c -2.19434,2.99317 -1.6084,7.40332 1.30176,9.80078 z" id="use6962"/>
    </clipPath>
    <clipPath id="SVGID_36_">
      <path d="m 100.85449,20.65942 -15.87891,4.53516 c -0.33301,0.09473 -0.67285,0.16211 -1.01563,0.20117 -1.68457,0.19434 -3.45801,-0.28516 -4.91309,-1.48438 l 15.87891,-4.53418 c 1.45508,1.19922 3.22852,1.67773 4.91211,1.48438 0.34376,-0.03906 0.6836,-0.10644 1.01661,-0.20215 z" id="use6982"/>
    </clipPath>
    <clipPath id="SVGID_38_">
      <path d="m 84.52734,-0.37769 -15.8789,4.53418 c 2.20313,-2.98535 2.26953,-8.04102 0.1543,-11.23535 l 15.87891,-4.53418 c 2.11523,3.19434 2.04882,8.25 -0.15431,11.23535 z" id="use6998"/>
    </clipPath>
    <clipPath id="SVGID_40_">
      <path d="m 68.84766,-52.48804 -15.87891,4.53467 c 3.18457,-0.90918 6.0293,-3.99512 6.5957,-7.35547 l 15.87891,-4.53467 c -0.56738,3.36036 -3.41211,6.44629 -6.5957,7.35547 z" id="use7012"/>
    </clipPath>
    <clipPath id="SVGID_42_">
      <path d="M 84.70215,10.95435 68.82422,15.4895 C 65.91406,13.09204 65.32813,8.68188 67.52149,5.68774 L 83.4004,1.15356 c -2.19337,2.99317 -1.60743,7.4043 1.30175,9.80079 z" id="use7042"/>
    </clipPath>
    <clipPath id="SVGID_44_">
      <path d="m 80.51172,-19.36499 -15.87891,4.53418 c -1.54883,-3.52246 -5.78125,-6.05664 -9.39063,-5.6416 l 15.87891,-4.53516 c 3.60938,-0.41504 7.8418,2.12012 9.39063,5.64258 z" id="use7058"/>
    </clipPath>
    <radialGradient cx="134.92773" cy="-46.166752" r="77.083076" id="radialGradient8126" xlink:href="#SVGID_45_" gradientUnits="userSpaceOnUse"/>
    <radialGradient cx="134.92773" cy="-46.166752" r="77.083076" id="SVGID_45_" gradientUnits="userSpaceOnUse">
      <stop id="stop7073" style="stop-color:#939393;stop-opacity:1" offset="0.07143"/>
      <stop id="stop7075" style="stop-color:#ffffff;stop-opacity:1" offset="0.19231001"/>
      <stop id="stop7077" style="stop-color:#939393;stop-opacity:1" offset="0.5"/>
      <stop id="stop7079" style="stop-color:#bbbbbb;stop-opacity:1" offset="0.59890002"/>
      <stop id="stop7081" style="stop-color:#b7b7b7;stop-opacity:1" offset="0.74725002"/>
      <stop id="stop7083" style="stop-color:#d6d6d6;stop-opacity:1" offset="0.80337"/>
      <stop id="stop7085" style="stop-color:#939598;stop-opacity:1" offset="1"/>
    </radialGradient>
    <clipPath id="SVGID_47_">
      <path d="m 48.63086,-47.27368 15.87891,-4.53467 c -3.07324,0.87744 -5.11328,4.03809 -4.6543,7.48926 l -15.87891,4.53467 c -0.45898,-3.45118 1.58106,-6.61182 4.6543,-7.48926 z" id="use7095"/>
    </clipPath>
    <clipPath id="SVGID_49_">
      <path d="m 69.12695,-24.77808 -15.87891,4.53516 c -3.61719,0.41504 -6.99023,-2.36328 -7.49609,-6.17578 l 15.87891,-4.53516 c 0.50586,3.8125 3.87891,6.5918 7.49609,6.17578 z" id="use7121"/>
    </clipPath>
    <clipPath id="SVGID_51_">
      <path d="m 142.34863,91.47583 c -5.29297,1.51172 -10.58594,3.02246 -15.87891,4.53418 -0.32129,0.0918 -0.65332,0.15918 -0.99512,0.19824 l 15.87793,-4.53516 c 0.34181,-0.03906 0.67481,-0.10546 0.9961,-0.19726 z" id="use7135"/>
    </clipPath>
    <clipPath id="SVGID_53_">
      <path d="m 122.35059,96.66333 c 5.29297,-1.51172 10.58594,-3.02344 15.87891,-4.53516 0.36914,-0.10547 0.74414,-0.18164 1.12012,-0.22461 l -15.87793,4.53516 c -0.37696,0.04297 -0.75099,0.11914 -1.1211,0.22461 z" id="use7151"/>
    </clipPath>
    <clipPath id="SVGID_55_">
      <path d="m 90.12305,23.5354 c 0.23828,-0.06787 0.55566,-0.15869 0.79395,-0.22656 5.02832,-1.43604 10.05566,-2.87207 15.08496,-4.30811 -1.30078,0.37158 -2.49316,1.16553 -3.37109,2.35889 L 86.75293,25.8938 c 0.87793,-1.19287 2.06934,-1.98682 3.37012,-2.3584 z" id="use7163"/>
    </clipPath>
    <clipPath id="SVGID_57_">
      <path d="m 96.45996,26.52905 -15.87793,4.53467 c 1.85156,-0.52881 3.54785,-1.60254 4.64453,-3.09473 l 15.87891,-4.53467 c -1.09766,1.49219 -2.79395,2.56592 -4.64551,3.09473 z" id="use7187"/>
    </clipPath>
    <clipPath id="SVGID_59_">
      <path d="m 124.51465,142.69556 c -5.29297,1.51074 -10.58594,3.02344 -15.87891,4.53418 -0.33203,0.0957 -0.6709,0.16211 -1.01465,0.20215 -1.68555,0.19336 -3.45996,-0.28516 -4.91992,-1.4834 l 15.87793,-4.53516 c 1.45996,1.19824 3.23535,1.67773 4.9209,1.4834 0.34277,-0.0391 0.68262,-0.10645 1.01465,-0.20117 z" id="use7207"/>
    </clipPath>
    <clipPath id="SVGID_61_">
      <path d="m 93.03906,143.22192 c 5.29297,-1.51172 10.58496,-3.02344 15.87793,-4.53516 0.46973,-0.13379 0.95508,-0.22852 1.44824,-0.28516 2.40625,-0.27734 4.99902,0.36328 6.83691,1.87695 l -15.87793,4.53418 c -1.83789,-1.51367 -4.43164,-2.15332 -6.83789,-1.87695 -0.49316,0.0567 -0.97851,0.15235 -1.44726,0.28614 z" id="use7223"/>
    </clipPath>
    <clipPath id="SVGID_63_">
      <path d="m 83.86914,126.47388 c -5.29297,1.51172 -10.58545,3.02344 -15.87891,4.53516 18.375,-5.24805 30.47754,-24.03516 27.73145,-44.70459 C 92.68555,63.44995 72.646,46.94751 50.96777,49.44019 c -2.07373,0.23828 -4.08691,0.6416 -6.03027,1.19678 L 60.81592,46.1023 c 1.94336,-0.55518 3.95654,-0.9585 6.03027,-1.19678 21.67822,-2.49268 41.71826,14.00977 44.75439,36.86426 2.74512,20.66894 -9.35644,39.45703 -27.73144,44.7041 z" id="use7235"/>
    </clipPath>
    <clipPath id="SVGID_65_">
      <path d="m 38.32373,13.08276 c 5.29346,-1.51123 10.58545,-3.02344 15.87842,-4.53467 -3.07275,0.87793 -5.11279,4.03809 -4.6543,7.48975 l -15.87842,4.53467 c -0.45849,-3.45166 1.58155,-6.6123 4.6543,-7.48975 z" id="use7259"/>
    </clipPath>
    <clipPath id="SVGID_67_">
      <path d="m 89.65527,163.11938 c -5.29297,1.51172 -10.58496,3.02246 -15.87793,4.53418 -0.32129,0.0918 -0.6543,0.15918 -0.99609,0.19824 l 15.87793,-4.53418 c 0.34277,-0.04 0.6748,-0.10644 0.99609,-0.19824 z" id="use7285"/>
    </clipPath>
    <clipPath id="SVGID_69_">
      <path d="m 44.83496,28.48462 -15.87891,4.53467 c 3.2959,-1.5459 5.58008,-5.9248 5.07324,-9.73828 l 15.87842,-4.53467 c 0.50684,3.81347 -1.77734,8.19238 -5.07275,9.73828 z" id="use7297"/>
    </clipPath>
    <clipPath id="SVGID_71_">
      <path d="m 35.66309,33.53101 c -5.29297,1.51123 -10.58545,3.02344 -15.87842,4.53467 0.85205,-0.24316 1.65088,-0.61377 2.34912,-1.11377 l 15.87793,-4.53467 c -0.69776,0.5 -1.49658,0.8706 -2.34863,1.11377 z" id="use7325"/>
    </clipPath>
    <clipPath id="SVGID_73_">
      <path d="m 75.98242,164.77466 -15.87891,4.53516 c -3.61719,0.41602 -6.98926,-2.36328 -7.49609,-6.17676 l 15.87842,-4.53418 c 0.50684,3.81347 3.87891,6.59179 7.49658,6.17578 z" id="use7347"/>
    </clipPath>
    <clipPath id="SVGID_75_">
      <path d="m 68.25635,156.87036 -15.87842,4.53418 c -0.50537,-3.80371 -3.86816,-7.54297 -7.46191,-8.30566 l 15.87891,-4.53516 c 3.59325,0.76367 6.95605,4.50195 7.46142,8.30664 z" id="use7361"/>
    </clipPath>
    <clipPath id="SVGID_77_">
      <path d="m 3.46826,33.49927 c 5.29297,-1.51172 10.58545,-3.02295 15.87842,-4.53467 -1.30029,0.37158 -2.49219,1.16553 -3.36914,2.35889 L 0.09863,35.85767 c 0.87744,-1.19288 2.06934,-1.98682 3.36963,-2.3584 z" id="use7379"/>
    </clipPath>
    <clipPath id="SVGID_79_">
      <path d="m 30.97852,150.36841 c 5.02832,-1.43555 10.05615,-2.87207 15.08447,-4.30762 0.23779,-0.0684 0.55566,-0.15918 0.79395,-0.22656 0.50586,-0.14453 1.02393,-0.24805 1.54492,-0.30762 1.40527,-0.16211 2.83008,-0.007 4.09521,0.51758 l -15.87842,4.53516 c -1.26514,-0.52539 -2.68994,-0.68066 -4.09521,-0.51855 -0.521,0.0596 -1.03906,0.16308 -1.54492,0.30761 z" id="use7399"/>
    </clipPath>
    <clipPath id="SVGID_81_">
      <path d="m 14.50195,64.01392 -15.87842,4.53467 c 1.25146,-3.56348 -0.10791,-8.43701 -3.01807,-10.83398 l 15.87842,-4.53467 c 2.91016,2.39696 4.26954,7.2705 3.01807,10.83398 z" id="use7415"/>
    </clipPath>
    <clipPath id="SVGID_83_">
      <path d="M 9.56641,51.60034 -6.31201,56.13501 C -9.22168,53.73706 -9.80762,49.3269 -7.61426,46.33374 L 8.26416,41.79907 c -2.19336,2.99317 -1.60742,7.40332 1.30225,9.80127 z" id="use7433"/>
    </clipPath>
    <clipPath id="SVGID_85_">
      <path d="m 37.85449,152.65942 c -5.29297,1.51172 -10.58594,3.02344 -15.87891,4.53516 -0.33252,0.0947 -0.67236,0.16211 -1.01563,0.20215 -1.68457,0.19336 -3.45801,-0.28613 -4.91309,-1.48535 l 15.87842,-4.53418 c 1.45508,1.19922 3.22852,1.67871 4.91309,1.48438 0.34327,-0.0391 0.68311,-0.10645 1.01612,-0.20216 z" id="use7453"/>
    </clipPath>
    <clipPath id="SVGID_87_">
      <path d="m 21.52686,131.62231 -15.87842,4.53418 c 2.20313,-2.98438 2.26953,-8.04004 0.15479,-11.23535 l 15.87842,-4.53418 c 2.11474,3.19434 2.04833,8.25 -0.15479,11.23535 z" id="use7469"/>
    </clipPath>
    <clipPath id="SVGID_89_">
      <path d="m 5.84766,79.51245 c -5.02832,1.43604 -10.05664,2.87207 -15.08496,4.30811 -0.23779,0.06787 -0.55566,0.15869 -0.79395,0.22656 3.18457,-0.90918 6.02881,-3.99561 6.59619,-7.35596 l 15.87842,-4.53467 c -0.56738,3.36084 -3.41162,6.44678 -6.5957,7.35596 z" id="use7483"/>
    </clipPath>
    <clipPath id="SVGID_91_">
      <path d="M 21.70215,142.95532 5.82373,147.4895 c -2.90967,-2.39746 -3.49561,-6.80762 -1.30225,-9.80176 l 15.87842,-4.53418 c -2.19336,2.99317 -1.60742,7.4043 1.30225,9.80176 z" id="use7513"/>
    </clipPath>
    <clipPath id="SVGID_93_">
      <path d="m 17.51123,112.63501 -15.87842,4.53418 c -1.54883,-3.52148 -5.78125,-6.05664 -9.39014,-5.6416 l 15.87842,-4.53418 c 3.60889,-0.41504 7.84131,2.11914 9.39014,5.6416 z" id="use7529"/>
    </clipPath>
    <radialGradient cx="71.926758" cy="85.833252" r="77.083557" id="radialGradient8128" xlink:href="#SVGID_94_" gradientUnits="userSpaceOnUse"/>
    <radialGradient cx="71.926758" cy="85.833252" r="77.083557" id="SVGID_94_" gradientUnits="userSpaceOnUse">
      <stop id="stop7544" style="stop-color:#939393;stop-opacity:1" offset="0.07143"/>
      <stop id="stop7546" style="stop-color:#ffffff;stop-opacity:1" offset="0.19231001"/>
      <stop id="stop7548" style="stop-color:#939393;stop-opacity:1" offset="0.5"/>
      <stop id="stop7550" style="stop-color:#bbbbbb;stop-opacity:1" offset="0.59890002"/>
      <stop id="stop7552" style="stop-color:#b7b7b7;stop-opacity:1" offset="0.74725002"/>
      <stop id="stop7554" style="stop-color:#d6d6d6;stop-opacity:1" offset="0.80337"/>
      <stop id="stop7556" style="stop-color:#939598;stop-opacity:1" offset="1"/>
    </radialGradient>
    <clipPath id="SVGID_96_">
      <path d="m -14.36914,84.72632 c 5.29297,-1.51123 10.58545,-3.02295 15.87842,-4.53467 -3.07324,0.87793 -5.11279,4.03809 -4.6543,7.48926 l -15.87842,4.53516 c -0.45849,-3.45118 1.58106,-6.61182 4.6543,-7.48975 z" id="use7566"/>
    </clipPath>
    <clipPath id="SVGID_98_">
      <path d="m 6.12646,107.22192 -15.87842,4.53516 c -3.61719,0.41602 -6.98975,-2.36328 -7.49609,-6.17578 l 15.87842,-4.53516 c 0.50635,3.81348 3.87891,6.5918 7.49609,6.17578 z" id="use7592"/>
    </clipPath>
  </defs>
  <g id="layer2">
    <g transform="matrix(1.2680625,0,0,1.2680625,-0.074106,11.579644)" id="g2682" style="display:inline">
      <g id="g3177">
        <path d="m 24.424881,26.020489 c 2.009508,-0.708782 2.625288,-2.926039 3.531618,-4.751657 1.062023,-1.113794 1.980231,1.454865 4.051545,1.217263 1.426334,-0.162405 3.694776,-2.570638 2.811061,-4.138277 -1.942138,-1.699218 -3.325246,0.49569 -4.531188,-0.918009 -0.184112,-1.52294 4.010533,-2.621164 3.027396,-3.732523 C 31.521682,12.364662 28.180769,12.712184 24.971284,11.475761 23.539102,9.8575787 28.207477,10.531503 27.179999,8.9512998 26.75921,8.3167908 23.966234,6.7716003 20.79927,7.4366232 18.765448,8.1115726 21.155127,10.174904 17.977025,9.9610841 15.803788,9.6906903 12.110472,8.2737976 10.001116,8.9512991 8.3668072,10.069742 7.5582415,11.631424 7.4242843,12.18261 c -0.332092,1.706123 3.6074277,0.561742 4.1809617,1.006103 1.697299,1.399125 -1.9271108,3.13369 -2.9516624,2.54471 -0.4099508,-0.82499 -1.402807,-1.254576 -2.7666661,-0.96445 -1.3844367,0.08577 -3.7092857,4.209632 -3.0161875,5.293639 1.1617336,1.353652 7.451904,3.066425 9.008341,2.87229 2.036634,0.05236 0.918158,-0.840179 1.064435,-1.984026 0.313539,-1.455668 7.576276,0.610365 6.029579,1.59711 -2.070609,0.382212 -2.643022,1.091778 -1.883419,1.819454 1.376821,1.167016 6.171138,2.205385 7.335215,1.653049 z" id="path2220" style="fill:url(#linearGradient2409);fill-opacity:1;fill-rule:evenodd;stroke:#323232;stroke-width:0.41774637;stroke-linecap:butt;stroke-linejoin:miter;stroke-miterlimit:4;stroke-opacity:1;stroke-dasharray:none"/>
        <use transform="translate(0.07178268,-0.3589134)" id="use2398" x="0" y="0" width="42.279999" height="42.279999" xlink:href="#path2220"/>
      </g>
    </g>
    <g transform="matrix(0.7249337,0,0,0.7249337,36.840308,14.854054)" id="g3555">
      <path d="m 136.21875,61.34375 c -3.17107,5.598289 -4.18012,14.454703 -12.125,14.745984 -7.95893,0.291797 -9.99809,-8.482418 -13.84375,-13.821318 -4.64005,0.634316 -9.16053,1.522436 -13.5625,2.627997 -0.195393,6.120234 3.275946,14.609732 -3.9375,17.252315 -7.214944,2.643133 -13.412496,-4.854411 -19.59375,-8.638324 -3.935623,1.958721 -7.675616,4.148506 -11.21875,6.496993 2.841563,5.704557 10.165834,12.501592 4.8125,17.081982 -5.360236,4.586291 -14.746829,-0.456749 -22.3125,-2.116998 -2.669228,2.963715 -5.111966,6.054169 -7.25,9.295319 5.415489,4.44038 15.609913,8.5348 12.90625,14.38099 -2.698074,5.8341 -13.881847,3.9761 -21.6875,4.69633 -0.991582,3.50326 -1.687244,7.09586 -2.0625,10.75532 7.189591,2.4692 18.563422,3.25492 18.9375,9.44132 0.374739,6.19735 -10.893528,7.78517 -17.75,10.77966 0.81462,3.61305 1.955186,7.13299 3.375,10.56065 7.859898,0.15215 18.762518,-2.55087 22.15625,3.066 3.394438,5.61803 -6.234268,10.44386 -11.09375,15.25699 2.515483,3.06453 5.327711,5.97674 8.34375,8.73565 7.326065,-2.21262 16.055144,-7.91578 21.9375,-3.74733 5.88994,4.17384 -0.586579,11.48286 -2.71875,17.37398 3.806145,2.07844 7.775059,3.98052 11.9375,5.64533 5.70254,-4.21685 10.960792,-12.15491 18.46875,-10.04965 7.49244,2.10089 5.1063,10.80932 6.03125,16.88731 4.49905,0.77211 9.11284,1.3138 13.8125,1.606 3.17107,-5.59829 4.18012,-14.45471 12.125,-14.74598 7.95893,-0.2918 9.99809,8.48242 13.84375,13.82131 4.64005,-0.63431 9.16053,-1.52244 13.5625,-2.62799 0.19539,-6.12024 -3.27595,-14.60974 3.9375,-17.25232 7.21494,-2.64313 13.4125,4.85442 19.59375,8.63833 3.93562,-1.95872 7.67562,-4.14851 11.21875,-6.497 -2.84156,-5.70455 -10.16583,-12.50159 -4.8125,-17.08198 5.36024,-4.58629 14.74683,0.45675 22.3125,2.117 2.66923,-2.96372 5.11197,-6.05417 7.25,-9.29532 -5.41549,-4.44038 -15.60992,-8.5348 -12.90625,-14.38099 2.69807,-5.83411 13.88185,-3.9761 21.6875,-4.69633 0.99158,-3.50325 1.68724,-7.09586 2.0625,-10.75532 -7.18959,-2.4692 -18.56343,-3.25492 -18.9375,-9.44132 -0.37474,-6.19735 10.89353,-7.78517 17.75,-10.77966 -0.81462,-3.61304 -1.95519,-7.13299 -3.375,-10.56065 -7.8599,-0.15215 -18.76252,2.55086 -22.15625,-3.066 -3.39444,-5.61803 6.23427,-10.44385 11.09375,-15.256985 -2.51548,-3.064535 -5.32771,-5.97674 -8.34375,-8.735658 -7.32606,2.212629 -16.05514,7.915787 -21.9375,3.74733 -5.88994,-4.173833 0.58658,-11.482852 2.71875,-17.373982 -3.80615,-2.078437 -7.77506,-3.980513 -11.9375,-5.645327 -5.70254,4.216856 -10.96079,12.154906 -18.46875,10.049656 -7.49244,-2.100898 -5.1063,-10.80932 -6.03125,-16.887316 -4.49905,-0.772111 -9.11284,-1.313799 -13.8125,-1.605998 z M 128,92.222717 c 34.224,0 62,21.628223 62,48.277283 0,26.64906 -27.776,48.27728 -62,48.27728 -34.224001,0 -62,-21.62822 -62,-48.27728 -10e-7,-26.64906 27.776,-48.277283 62,-48.277283 z" transform="matrix(0.201008,0,0,0.2009534,-42.598294,-9.700064)" id="path5735" style="color:#000000;fill:#000000;fill-opacity:1;fill-rule:nonzero;stroke:none;stroke-width:0.30000001;marker:none;visibility:visible;display:block;overflow:visible;filter:url(#filter5735);enable-background:accumulate"/>
      <path d="m -15.221217,-2.9972248 c -0.63741,1.124995 -0.840515,2.910216 -2.4375,2.96875 -1.599808,0.058638 -2.008242,-1.70838 -2.78125,-2.78125 -0.932687,0.127468 -1.833919,0.309083 -2.71875,0.53125 -0.03928,1.229881 0.66871,2.937715 -0.78125,3.46875 -1.450262,0.531147 -2.726269,-0.98961 -3.96875,-1.75 -0.791093,0.393611 -2.073223,1.3125 -2.073223,1.3125 0,0 0.173255,3.96783 0.173255,3.96783 0,0 -2.329273,-0.634196 -3.850033,-0.96783 -0.536536,0.595568 -1.038988,1.223682 -1.46875,1.875 0,0 0.392005,3.6875 0.392005,3.6875 0,0 -1.23347,0.07244 -2.142005,0.15625 -0.199316,0.7039908 -0.362071,1.4208688 -0.4375,2.1562498 0,0 0.176777,4.600032 0.176777,4.600032 0,0 0.07322,4.681218 0.07322,4.681218 0.163745,0.726056 0.402106,1.436201 0.6875,2.125 2.752477,-0.688263 2.051015,0.09467 2.051015,0.09467 0,0 0.167735,3.59283 0.167735,3.59283 0.505632,0.615827 1.081253,1.195588 1.6875,1.75 1.472597,-0.444632 3.22385,-1.587664 4.406251,-0.75 1.183925,0.838747 -0.133917,2.316161 -0.5625,3.5 0.765066,0.41767 1.569566,0.79045 2.40625,1.125 1.146255,-0.847391 2.209591,-2.454309 3.71875,-2.03125 1.506042,0.422181 1.032827,2.184856 1.21875,3.40625 0.904343,0.155156 1.805331,0.25378 2.75,0.3125 0.637411,-1.124997 0.840516,-2.910217 2.4375,-2.96875 1.599808,-0.05864 2.008242,1.708381 2.78125,2.78125 0.932688,-0.127466 1.865169,-0.309087 2.75,-0.53125 0.03927,-1.229882 -0.668711,-2.937714 0.7812498,-3.46875 1.450259,-0.531145 2.695019,0.989611 3.9375,1.75 0.791092,-0.393611 1.537803,-0.840563 2.25,-1.3125 0,0 -0.173255,-3.260723 -0.173255,-3.260723 1.077451,-0.92163 2.183745,-0.07291 3.70450495,0.260723 0.536535,-0.59557 1.007739,-1.223679 1.43750005,-1.875 0,0 -0.111675,-3.520527 -0.111675,-3.520527 0,0 1.892925,-0.323223 1.892925,-0.323223 0.199314,-0.703989 0.330819,-1.42087 0.40625,-2.15625 0,0 0,-5.21875 0,-5.21875 -0.189537,-0.06508 -0.413413,-0.0996 -0.625,-0.15625 -0.09202,-0.268212 0.269581,-0.726473 0.160692,-0.989277 0,0 0.245558,-2.916973 0.245558,-2.916973 -0.163745,-0.7260518 -0.402106,-1.4361998 -0.6875,-2.1249998 -1.184927,-0.02293 -2.70929005,0.293596 -3.6875,-0.03125 -0.02329,-0.0077 -0.03985,-0.02279 -0.0625,-0.03125 -0.05346,-0.04999 -0.102121,-0.106749 -0.15625,-0.15625 -0.0294,0.0089 -0.06413,0.02183 -0.09375,0.03125 -0.1788,-0.104357 -0.359116,-0.256098 -0.46875,-0.4375 -0.682308,-1.128963 1.27320595,-2.095284 2.24999995,-3.0625 -0.505633,-0.615829 -1.081252,-1.195586 -1.68749995,-1.75 -1.472595,0.444635 -3.223849,1.587665 -4.40625,0.75 -1.183924,-0.838746 0.102667,-2.284908 0.53125,-3.46875 -0.765069,-0.417668 -1.538316,-0.8217 -2.375,-1.15625 -1.146255,0.847392 -2.20959,2.454308 -3.7187498,2.03125 -1.50604,-0.422183 -1.032828,-2.184856 -1.21875,-3.40625 -0.904345,-0.155158 -1.836581,-0.253782 -2.78125,-0.3125 z m -1.65625,6.1875 c 0.409032,0 0.819783,0.03247 1.21875,0.0625 -0.38966,0.94809 -0.840146,1.894988 -2,1.9375 -1.121582,0.04111 -1.669222,-0.803371 -2.15625,-1.6875 0.948331,-0.179935 1.918335,-0.3125 2.9375,-0.3125 z m 4.53125,0.6875 c 1.166416,0.355437 2.253984,0.840151 3.2187498,1.4375 -0.625728,0.496775 -1.2949358,0.848928 -2.0937498,0.625 -0.999875,-0.28029 -1.099756,-1.154927 -1.125,-2.0625 z m -10.71875,0.625 c 0.05875,0.822696 0.0087,1.582618 -0.875,1.90625 -0.65715,0.240676 -1.283108,0.05587 -1.875,-0.28125 0.806935,-0.645946 1.739679,-1.173208 2.75,-1.625 z m 6.1875,3.9375 c 5.718415,10e-7 10.5351318,3.0042828 11.9999998,7.0937498 -1.476665,4.075344 -6.2944838,7.0625 -11.9999998,7.0625 -5.706448,1e-6 -10.524185,-2.986134 -12,-7.0625 1.463781,-4.090763 6.280403,-7.0937498 12,-7.0937498 z m 7.6249998,16.0937498 c 0.451358,-0.02099 0.891594,0.138689 1.3125,0.375 -0.806203,0.645373 -1.740752,1.173414 -2.7499998,1.625 -0.05671,-0.817148 0.02776,-1.58451 0.9062498,-1.90625 0.181282,-0.06639 0.355965,-0.0856 0.53125,-0.09375 z m -13.8124998,0.5 c 0.175571,-0.0048 0.373855,0.0096 0.5625,0.0625 0.999877,0.280291 1.099757,1.154927 1.125,2.0625 -1.182868,-0.358576 -2.274209,-0.830602 -3.25,-1.4375 0.482687,-0.385717 0.98828,-0.671849 1.5625,-0.6875 z m 6.96875,0.8125 c 1.130484,-0.04144 1.666117,0.827182 2.15625,1.71875 -0.937335,0.175522 -1.931294,0.28125 -2.9375,0.28125 -0.408512,0 -0.789027,-0.03255 -1.1875,-0.0625 0.38966,-0.948091 0.808897,-1.89499 1.96875,-1.9375 z" id="path5670" style="color:#000000;fill:#717171;fill-opacity:1;fill-rule:nonzero;stroke:#888a85;stroke-width:2;stroke-linecap:butt;stroke-linejoin:miter;stroke-miterlimit:10;stroke-opacity:1;stroke-dasharray:none;stroke-dashoffset:0;marker:none;visibility:visible;display:block;overflow:visible;enable-background:accumulate"/>
      <path d="m -15.217246,2.2252612 c -0.63741,1.124995 -0.840237,2.90472 -2.437222,2.963254 -1.599807,0.05864 -2.009694,-1.70457 -2.782702,-2.77744 -0.932688,0.127468 -1.841339,0.305939 -2.72617,0.528105 -0.03928,1.229881 0.658491,2.935875 -0.791469,3.46691 -1.450261,0.531146 -2.696017,-0.975509 -3.938498,-1.7359 -0.791093,0.393612 -1.54286,0.833657 -2.255059,1.305592 0.571177,1.146351 2.043414,2.512236 0.967351,3.432683 -1.077449,0.9216288 -2.96423,-0.09179 -4.48499,-0.425419 -0.536536,0.595568 -1.027546,1.2166048 -1.457307,1.8679248 1.088556,0.892309 3.137716,1.715096 2.594258,2.889908 -0.542333,1.172382 -2.790361,0.79901 -4.359359,0.943744 -0.199316,0.703992 -0.339149,1.425936 -0.414579,2.161317 1.445165,0.496194 3.731395,0.654086 3.806588,1.897264 0.07533,1.245379 -2.189686,1.564457 -3.567891,2.166209 0.163745,0.726055 0.393008,1.433399 0.678402,2.122198 1.579902,0.03058 3.771415,-0.512606 4.453582,0.616123 0.682309,1.128962 -1.253137,2.098728 -2.229932,3.065943 0.505632,0.615828 1.070912,1.201046 1.67716,1.755458 1.472597,-0.444634 3.227211,-1.590702 4.409612,-0.753038 1.183925,0.838747 -0.117908,2.307519 -0.546491,3.491358 0.765066,0.417671 1.562849,0.799899 2.399533,1.134449 1.146255,-0.84739 2.203205,-2.44257 3.712364,-2.019511 1.506041,0.422181 1.026407,2.172168 1.21233,3.393562 0.904344,0.155157 1.831752,0.264011 2.776421,0.322731 0.637411,-1.124996 0.840238,-2.904722 2.437222,-2.963255 1.599808,-0.05864 2.009694,1.70457 2.782702,2.777439 0.932688,-0.127467 1.84134,-0.30594 2.726171,-0.528103 0.03927,-1.229883 -0.658492,-2.935876 0.7914688,-3.466912 1.45026,-0.531145 2.696017,0.975512 3.938498,1.735901 0.791092,-0.393611 1.542861,-0.833656 2.255058,-1.305593 -0.571176,-1.146349 -2.043412,-2.512237 -0.967351,-3.432681 1.077452,-0.92163 2.96423,0.09178 4.48498995,0.425418 0.536536,-0.595569 1.027546,-1.216605 1.45730705,-1.867926 -1.08855605,-0.892309 -3.137717,-1.715096 -2.594259,-2.889908 0.54233395,-1.172383 2.790362,-0.79901 4.35936,-0.943743 0.199315,-0.703989 0.339148,-1.425937 0.414579,-2.161317 -1.445165,-0.496194 -3.73139705,-0.654087 -3.80658805,-1.897265 -0.07533,-1.245378 2.18968605,-1.564455 3.56789105,-2.166209 -0.163746,-0.726052 -0.393008,-1.433397 -0.678402,-2.122197 -1.579903,-0.03057 -3.771415,0.512603 -4.453582,-0.616124 -0.682309,-1.128961 1.25313795,-2.098726 2.22993195,-3.0659418 -0.505632,-0.615827 -1.070912,-1.201044 -1.67715995,-1.755458 -1.472596,0.444634 -3.22721,1.590703 -4.409611,0.753038 -1.183925,-0.838746 0.117908,-2.307518 0.546491,-3.49136 -0.765067,-0.417668 -1.562849,-0.799897 -2.399533,-1.134447 -1.146256,0.847391 -2.203205,2.442568 -3.7123648,2.019511 -1.50604,-0.422181 -1.026407,-2.172168 -1.212329,-3.393562 -0.904344,-0.155158 -1.831753,-0.264012 -2.776422,-0.32273 z m -1.652034,6.205232 c 6.8792958,0 12.4624908,4.3462628 12.4624908,9.7014798 0,5.355218 -5.583195,9.70148 -12.4624908,9.70148 -6.879295,0 -12.462491,-4.346262 -12.462491,-9.70148 0,-5.355217 5.583196,-9.7014798 12.462491,-9.7014798 z" id="path5609" style="color:#000000;fill:#717171;fill-opacity:1;fill-rule:nonzero;stroke:none;stroke-width:0.30000001;marker:none;visibility:visible;display:block;overflow:visible;enable-background:accumulate"/>
      <path d="m -32.497646,23.105568 0.05025,5.375501 2.160835,-0.854051 c 0,0 1.75882,-0.502383 2.613104,0.100477 0.570343,0.402486 0.753779,-6.078839 0.753779,-6.078839 l -3.618142,0.05024 -1.959828,1.406674 z" id="path5986" style="color:#000000;fill:url(#linearGradient3585);fill-opacity:1;fill-rule:evenodd;stroke:none;stroke-width:1px;marker:none;visibility:visible;display:inline;overflow:visible;enable-background:accumulate"/>
      <path d="m -36.486529,17.658809 0.142134,5.399628 4.939159,-0.284192 0.71067,-5.435152 -5.791963,0.319716 z" id="path5964" style="color:#000000;fill:url(#linearGradient3587);fill-opacity:1;fill-rule:evenodd;stroke:none;stroke-width:1px;marker:none;visibility:visible;display:inline;overflow:visible;enable-background:accumulate"/>
      <path d="m -21.324126,33.669667 0.297203,-5.30346 0.246208,-4.028912 -3.269083,-0.639429 -2.274145,3.481338 0.07107,5.186484 c 0.527646,-0.301429 2.284335,-2.388951 3.979754,-1.934789 1.076212,0.288292 0.948996,3.238768 0.948996,3.238768 z" id="path5731" style="color:#000000;fill:url(#linearGradient3589);fill-opacity:1;fill-rule:evenodd;stroke:none;stroke-width:1px;marker:none;visibility:visible;display:inline;overflow:visible;enable-background:accumulate"/>
      <path d="m 3.2817638,10.144078 -0.100504,4.772642 -5.678473,-0.502383 0.402015,-2.411441 5.376962,-1.858818 z" id="path5721" style="color:#000000;fill:url(#linearGradient3591);fill-opacity:1;fill-rule:evenodd;stroke:none;stroke-width:1px;marker:none;visibility:visible;display:inline;overflow:visible;enable-background:accumulate"/>
      <path d="m 3.1310078,16.323393 0,5.224787 -5.175953,0.351668 -0.50252,-5.325264 5.678473,-0.251191 z" id="path5715" style="color:#000000;fill:url(#linearGradient3593);fill-opacity:1;fill-rule:evenodd;stroke:none;stroke-width:1px;marker:none;visibility:visible;display:inline;overflow:visible;enable-background:accumulate"/>
      <path d="m -0.08511825,27.325588 c 0,0 -3.21612695,-1.20572 -4.12066195,-0.803813 -0.904537,0.401906 -0.804033,-4.672165 -0.804033,-4.672165 1.855117,-1.24747 3.309116,-0.08889 4.92469495,0.100477 l 0,5.375501 z" id="path5633" style="color:#000000;fill:url(#linearGradient3595);fill-opacity:1;fill-rule:evenodd;stroke:none;stroke-width:1px;marker:none;visibility:visible;display:inline;overflow:visible;enable-background:accumulate"/>
      <path d="m 0.11588875,9.5914562 0.201009,-5.275025 -5.52771795,0.351668 0.05025,-4.772641 -2.311591,-1.1554818 -2.5126,4.1195438 -1.8090688,-1.1554823 -0.603023,-4.2702579 -2.763859,-0.3516688 -0.854284,4.0693049 -5.376962,0.5023833 -1.708567,-3.9185897 0,4.5214495 c 0,0 -2.261339,0.200954 -2.462347,0.150716 -0.201008,-0.05024 -4.422174,-1.6578656 -4.422174,-1.6578656 l 0.150755,4.6219266 -4.120663,-0.502383 -1.105543,0.753575 0.452268,4.169782 2.060331,0.8038128 -4.723686,1.004766 -0.05025,5.275026 5.980276,-1.264747 0.954498,-7.1752938 3.618142,-2.612393 5.82923,-3.365968 10.854427,1.105243 7.3367898,6.129077 2.86436195,-0.100477 z" id="path5725" style="color:#000000;fill:url(#linearGradient3597);fill-opacity:1;fill-rule:evenodd;stroke:none;stroke-width:1px;marker:none;visibility:visible;display:inline;overflow:visible;enable-background:accumulate"/>
      <path d="m -13.368928,33.816071 0.05025,-5.429055 -1.847743,-3.552388 -2.558413,0.213144 -0.781738,3.836579 -0.04163,5.286959 c 0,0 1.024376,-3.134719 2.528977,-3.08448 1.704658,0.05692 2.177211,2.226858 2.650295,2.729241 z" id="path5727" style="color:#000000;fill:url(#linearGradient3599);fill-opacity:1;fill-rule:evenodd;stroke:none;stroke-width:1px;marker:none;visibility:visible;display:inline;overflow:visible;enable-background:accumulate"/>
      <path d="m -15.217246,-2.999526 c -0.63741,1.1249947 -0.840237,2.9047207 -2.437222,2.9632549 -1.599807,0.058638 -2.009694,-1.7045703 -2.782702,-2.7774403 -0.932688,0.127468 -1.841339,0.3059385 -2.72617,0.528105 -0.03928,1.2298813 0.658491,2.9358745 -0.791469,3.4669098 -1.450261,0.5311471 -2.696017,-0.9755095 -3.938498,-1.7358998 -0.791093,0.3936114 -1.54286,0.8336565 -2.255059,1.3055928 0.571177,1.1463498 2.043414,2.5122368 0.967351,3.4326808 -1.077449,0.921631 -2.96423,-0.09178 -4.48499,-0.425418 -0.536536,0.595568 -1.027546,1.216607 -1.457307,1.867925 1.088556,0.89231 3.137716,1.715097 2.594258,2.889908 -0.542333,1.172383 -2.790361,0.799011 -4.359359,0.943744 -0.199316,0.7039918 -0.339149,1.4259358 -0.414579,2.1613168 1.445165,0.496194 3.731395,0.654088 3.806588,1.897265 0.07533,1.245378 -2.189686,1.564456 -3.567891,2.166209 0.163745,0.726054 0.393008,1.433398 0.678402,2.122198 1.579902,0.03057 3.771415,-0.512606 4.453582,0.616123 0.682309,1.128961 -1.253137,2.098728 -2.229932,3.065942 0.505632,0.615828 1.070912,1.201046 1.67716,1.755458 1.472597,-0.444633 3.227211,-1.590701 4.409612,-0.753038 1.183925,0.838747 -0.117908,2.307519 -0.546491,3.491359 0.765066,0.41767 1.562849,0.799899 2.399533,1.134449 1.146255,-0.847391 2.203205,-2.44257 3.712364,-2.019512 1.506041,0.422181 1.026407,2.17217 1.21233,3.393562 0.904344,0.155157 1.831752,0.264012 2.776421,0.322731 0.637411,-1.124996 0.840238,-2.904723 2.437222,-2.963255 1.599808,-0.05864 2.009694,1.704572 2.782702,2.777439 0.932688,-0.127467 1.84134,-0.305939 2.726171,-0.528103 0.03927,-1.229883 -0.658492,-2.935876 0.7914688,-3.466911 1.45026,-0.531146 2.696017,0.975511 3.938498,1.735901 0.791092,-0.393612 1.542861,-0.833657 2.255058,-1.305593 -0.571176,-1.146349 -2.043412,-2.512238 -0.967351,-3.432682 1.077452,-0.92163 2.96423,0.09179 4.48498995,0.425418 0.536536,-0.595569 1.027546,-1.216605 1.45730705,-1.867925 -1.08855605,-0.892309 -3.137717,-1.715097 -2.594259,-2.889908 0.54233395,-1.172384 2.790362,-0.799011 4.35936,-0.943744 0.199315,-0.703989 0.339148,-1.425936 0.414579,-2.161317 -1.445165,-0.496194 -3.73139705,-0.654087 -3.80658805,-1.897264 -0.07533,-1.245379 2.18968605,-1.564457 3.56789105,-2.16621 -0.163746,-0.7260518 -0.393008,-1.4333968 -0.678402,-2.1221968 -1.579903,-0.03057 -3.771415,0.512604 -4.453582,-0.616122 -0.682309,-1.128963 1.25313795,-2.098727 2.22993195,-3.065943 -0.505632,-0.615829 -1.070912,-1.201045 -1.67715995,-1.755459 -1.472596,0.444635 -3.22721,1.590703 -4.409611,0.753038 -1.183925,-0.838746 0.117908,-2.3075178 0.546491,-3.4913599 -0.765067,-0.4176684 -1.562849,-0.7998974 -2.399533,-1.134447 -1.146256,0.8473913 -2.203205,2.4425692 -3.7123648,2.0195117 -1.50604,-0.4221825 -1.026407,-2.1721692 -1.212329,-3.3935627 -0.904344,-0.1551578 -1.831753,-0.2640123 -2.776422,-0.3227303 z m -1.652034,6.2052312 c 6.8792958,0 12.4624908,4.346264 12.4624908,9.7014808 0,5.355218 -5.583195,9.70148 -12.4624908,9.70148 -6.879295,0 -12.462491,-4.346262 -12.462491,-9.70148 0,-5.3552168 5.583196,-9.7014808 12.462491,-9.7014808 z" id="path4582" style="color:#000000;fill:url(#linearGradient3601);fill-opacity:1;fill-rule:nonzero;stroke:none;stroke-width:0.30000001;marker:none;visibility:visible;display:block;overflow:visible;enable-background:accumulate"/>
      <path d="m -5.9143482,31.696323 0,-5.526216 c 0,0 -2.713607,-2.310965 -3.819151,-1.758343 -1.1055428,0.552622 -1.3065508,2.110011 -1.3065508,2.110011 l 0.402016,6.832413 c 0,0 -0.552772,-3.215253 1.0050388,-3.516683 1.557812,-0.30143 3.718647,1.858818 3.718647,1.858818 z" id="path5637" style="color:#000000;fill:url(#linearGradient3603);fill-opacity:1;fill-rule:evenodd;stroke:none;stroke-width:1px;marker:none;visibility:visible;display:inline;overflow:visible;enable-background:accumulate"/>
      <path d="m -15.217246,-2.999526 c -0.63741,1.1249947 -0.840237,2.9047207 -2.437222,2.9632549 -1.599807,0.058638 -2.009694,-1.7045703 -2.782702,-2.7774403 -0.932688,0.127468 -1.841339,0.3059385 -2.72617,0.528105 -0.03928,1.2298813 0.658491,2.9358745 -0.791469,3.4669098 -1.450261,0.5311471 -2.696017,-0.9755095 -3.938498,-1.7358998 -0.791093,0.3936114 -1.54286,0.8336565 -2.255059,1.3055928 0.571177,1.1463498 2.043414,2.5122368 0.967351,3.4326808 -1.077449,0.921631 -2.96423,-0.09178 -4.48499,-0.425418 -0.536536,0.595568 -1.027546,1.216607 -1.457307,1.867925 1.088556,0.89231 3.137716,1.715097 2.594258,2.889908 -0.542333,1.172383 -2.790361,0.799011 -4.359359,0.943744 -0.199316,0.7039918 -0.339149,1.4259358 -0.414579,2.1613168 1.445165,0.496194 3.731395,0.654088 3.806588,1.897265 0.07533,1.245378 -2.189686,1.564456 -3.567891,2.166209 0.163745,0.726054 0.393008,1.433398 0.678402,2.122198 1.579902,0.03057 3.771415,-0.512606 4.453582,0.616123 0.682309,1.128961 -1.253137,2.098728 -2.229932,3.065942 0.505632,0.615828 1.070912,1.201046 1.67716,1.755458 1.472597,-0.444633 3.227211,-1.590701 4.409612,-0.753038 1.183925,0.838747 -0.117908,2.307519 -0.546491,3.491359 0.765066,0.41767 1.562849,0.799899 2.399533,1.134449 1.146255,-0.847391 2.203205,-2.44257 3.712364,-2.019512 1.506041,0.422181 1.026407,2.17217 1.21233,3.393562 0.904344,0.155157 1.831752,0.264012 2.776421,0.322731 0.637411,-1.124996 0.840238,-2.904723 2.437222,-2.963255 1.599808,-0.05864 2.009694,1.704572 2.782702,2.777439 0.932688,-0.127467 1.84134,-0.305939 2.726171,-0.528103 0.03927,-1.229883 -0.658492,-2.935876 0.7914688,-3.466911 1.45026,-0.531146 2.696017,0.975511 3.938498,1.735901 0.791092,-0.393612 1.542861,-0.833657 2.255058,-1.305593 -0.571176,-1.146349 -2.043412,-2.512238 -0.967351,-3.432682 1.077452,-0.92163 2.96423,0.09179 4.48498995,0.425418 0.536536,-0.595569 1.027546,-1.216605 1.45730705,-1.867925 -1.08855605,-0.892309 -3.137717,-1.715097 -2.594259,-2.889908 0.54233395,-1.172384 2.790362,-0.799011 4.35936,-0.943744 0.199315,-0.703989 0.339148,-1.425936 0.414579,-2.161317 -1.445165,-0.496194 -3.73139705,-0.654087 -3.80658805,-1.897264 -0.07533,-1.245379 2.18968605,-1.564457 3.56789105,-2.16621 -0.163746,-0.7260518 -0.393008,-1.4333968 -0.678402,-2.1221968 -1.579903,-0.03057 -3.771415,0.512604 -4.453582,-0.616122 -0.682309,-1.128963 1.25313795,-2.098727 2.22993195,-3.065943 -0.505632,-0.615829 -1.070912,-1.201045 -1.67715995,-1.755459 -1.472596,0.444635 -3.22721,1.590703 -4.409611,0.753038 -1.183925,-0.838746 0.117908,-2.3075178 0.546491,-3.4913599 -0.765067,-0.4176684 -1.562849,-0.7998974 -2.399533,-1.134447 -1.146256,0.8473913 -2.203205,2.4425692 -3.7123648,2.0195117 -1.50604,-0.4221825 -1.026407,-2.1721692 -1.212329,-3.3935627 -0.904344,-0.1551578 -1.831753,-0.2640123 -2.776422,-0.3227303 z m -1.652034,6.2052312 c 6.8792958,0 12.4624908,4.346264 12.4624908,9.7014808 0,5.355218 -5.583195,9.70148 -12.4624908,9.70148 -6.879295,0 -12.462491,-4.346262 -12.462491,-9.70148 0,-5.3552168 5.583196,-9.7014808 12.462491,-9.7014808 z" id="path5587" style="color:#000000;fill:url(#radialGradient3605);fill-opacity:1;fill-rule:nonzero;stroke:none;stroke-width:0.30000001;marker:none;visibility:visible;display:block;overflow:visible;enable-background:accumulate"/>
      <path d="m -15.217246,-2.999526 c -0.63741,1.1249947 -0.840237,2.9047207 -2.437222,2.9632549 -1.599807,0.058638 -2.009694,-1.7045703 -2.782702,-2.7774403 -0.932688,0.127468 -1.841339,0.3059385 -2.72617,0.528105 -0.03928,1.2298813 0.658491,2.9358745 -0.791469,3.4669098 -1.450261,0.5311471 -2.696017,-0.9755095 -3.938498,-1.7358998 -0.791093,0.3936114 -1.54286,0.8336565 -2.255059,1.3055928 0.571177,1.1463498 2.043414,2.5122368 0.967351,3.4326808 -1.077449,0.921631 -2.96423,-0.09178 -4.48499,-0.425418 -0.536536,0.595568 -1.027546,1.216607 -1.457307,1.867925 1.088556,0.89231 3.137716,1.715097 2.594258,2.889908 -0.542333,1.172383 -2.790361,0.799011 -4.359359,0.943744 -0.199316,0.7039918 -0.339149,1.4259358 -0.414579,2.1613168 1.445165,0.496194 3.731395,0.654088 3.806588,1.897265 0.07533,1.245378 -2.189686,1.564456 -3.567891,2.166209 0.163745,0.726054 0.393008,1.433398 0.678402,2.122198 1.579902,0.03057 3.771415,-0.512606 4.453582,0.616123 0.682309,1.128961 -1.253137,2.098728 -2.229932,3.065942 0.505632,0.615828 1.070912,1.201046 1.67716,1.755458 1.472597,-0.444633 3.227211,-1.590701 4.409612,-0.753038 1.183925,0.838747 -0.117908,2.307519 -0.546491,3.491359 0.765066,0.41767 1.562849,0.799899 2.399533,1.134449 1.146255,-0.847391 2.203205,-2.44257 3.712364,-2.019512 1.506041,0.422181 1.026407,2.17217 1.21233,3.393562 0.904344,0.155157 1.831752,0.264012 2.776421,0.322731 0.637411,-1.124996 0.840238,-2.904723 2.437222,-2.963255 1.599808,-0.05864 2.009694,1.704572 2.782702,2.777439 0.932688,-0.127467 1.84134,-0.305939 2.726171,-0.528103 0.03927,-1.229883 -0.658492,-2.935876 0.7914688,-3.466911 1.45026,-0.531146 2.696017,0.975511 3.938498,1.735901 0.791092,-0.393612 1.542861,-0.833657 2.255058,-1.305593 -0.571176,-1.146349 -2.043412,-2.512238 -0.967351,-3.432682 1.077452,-0.92163 2.96423,0.09179 4.48498995,0.425418 0.536536,-0.595569 1.027546,-1.216605 1.45730705,-1.867925 -1.08855605,-0.892309 -3.137717,-1.715097 -2.594259,-2.889908 0.54233395,-1.172384 2.790362,-0.799011 4.35936,-0.943744 0.199315,-0.703989 0.339148,-1.425936 0.414579,-2.161317 -1.445165,-0.496194 -3.73139705,-0.654087 -3.80658805,-1.897264 -0.07533,-1.245379 2.18968605,-1.564457 3.56789105,-2.16621 -0.163746,-0.7260518 -0.393008,-1.4333968 -0.678402,-2.1221968 -1.579903,-0.03057 -3.771415,0.512604 -4.453582,-0.616122 -0.682309,-1.128963 1.25313795,-2.098727 2.22993195,-3.065943 -0.505632,-0.615829 -1.070912,-1.201045 -1.67715995,-1.755459 -1.472596,0.444635 -3.22721,1.590703 -4.409611,0.753038 -1.183925,-0.838746 0.117908,-2.3075178 0.546491,-3.4913599 -0.765067,-0.4176684 -1.562849,-0.7998974 -2.399533,-1.134447 -1.146256,0.8473913 -2.203205,2.4425692 -3.7123648,2.0195117 -1.50604,-0.4221825 -1.026407,-2.1721692 -1.212329,-3.3935627 -0.904344,-0.1551578 -1.831753,-0.2640123 -2.776422,-0.3227303 z m -1.652034,6.2052312 c 6.8792958,0 12.4624908,4.346264 12.4624908,9.7014808 0,5.355218 -5.583195,9.70148 -12.4624908,9.70148 -6.879295,0 -12.462491,-4.346262 -12.462491,-9.70148 0,-5.3552168 5.583196,-9.7014808 12.462491,-9.7014808 z" id="path5605" style="color:#000000;fill:url(#radialGradient3607);fill-opacity:1;fill-rule:nonzero;stroke:none;stroke-width:0.30000001;marker:none;visibility:visible;display:block;overflow:visible;enable-background:accumulate"/>
      <path d="m -13.351642,28.631785 -0.05025,5.325264 2.814111,-0.602861 -0.02587,-5.295833 -2.737994,0.57343 z" id="path5613" style="fill:url(#linearGradient3609);fill-opacity:1;fill-rule:evenodd;stroke:none"/>
      <path d="m -5.9143482,26.170107 0.05025,5.576454 2.361843,-1.557388 -0.201007,-5.023833 -2.211088,1.004767 z" id="path5623" style="color:#000000;fill:url(#linearGradient3611);fill-opacity:1;fill-rule:evenodd;stroke:none;stroke-width:1px;marker:none;visibility:visible;display:inline;overflow:visible;enable-background:accumulate"/>
      <path d="m -0.08511825,22.050563 0,5.42574 1.45730805,-2.11001 0.05025,-5.023834 -1.50756005,1.708104 z" id="path5629" style="color:#000000;fill:url(#linearGradient3613);fill-opacity:1;fill-rule:evenodd;stroke:none;stroke-width:1px;marker:none;visibility:visible;display:inline;overflow:visible;enable-background:accumulate"/>
      <path d="m -16.844154,3.1609502 c -6.865425,0 -12.487616,4.31085 -12.487617,9.7462358 0,0.904547 0.209087,1.880658 0.497998,2.71287 1.447141,-4.168518 6.266726,-7.2343198 11.989619,-7.2343198 5.722893,0 10.5424778,3.0658018 11.9896198,7.2343198 0.288911,-0.832212 0.447745,-1.808323 0.447745,-2.71287 0,-5.4353858 -5.57194,-9.7462358 -12.4373648,-9.7462358 z" id="path5688" style="color:#000000;fill:url(#linearGradient3615);fill-opacity:1;fill-rule:evenodd;stroke:none;stroke-width:1px;marker:none;visibility:visible;display:inline;overflow:visible;enable-background:accumulate"/>
      <path d="m -15.217246,-2.999526 c -0.63741,1.1249947 -0.840237,2.9047207 -2.437222,2.9632549 -1.599807,0.058638 -2.009694,-1.7045703 -2.782702,-2.7774403 -0.932688,0.127468 -1.841339,0.3059385 -2.72617,0.528105 -0.03928,1.2298813 0.658491,2.9358745 -0.791469,3.4669098 -1.450261,0.5311471 -2.696017,-0.9755095 -3.938498,-1.7358998 -0.791093,0.3936114 -1.54286,0.8336565 -2.255059,1.3055928 0.571177,1.1463498 2.043414,2.5122368 0.967351,3.4326808 -1.077449,0.921631 -2.96423,-0.09178 -4.48499,-0.425418 -0.536536,0.595568 -1.027546,1.216607 -1.457307,1.867925 1.088556,0.89231 3.137716,1.715097 2.594258,2.889908 -0.542333,1.172383 -2.790361,0.799011 -4.359359,0.943744 -0.199316,0.7039918 -0.339149,1.4259358 -0.414579,2.1613168 1.445165,0.496194 3.731395,0.654088 3.806588,1.897265 0.07533,1.245378 -2.189686,1.564456 -3.567891,2.166209 0.163745,0.726054 0.393008,1.433398 0.678402,2.122198 1.579902,0.03057 3.771415,-0.512606 4.453582,0.616123 0.682309,1.128961 -1.253137,2.098728 -2.229932,3.065942 0.505632,0.615828 1.070912,1.201046 1.67716,1.755458 1.472597,-0.444633 3.227211,-1.590701 4.409612,-0.753038 1.183925,0.838747 -0.117908,2.307519 -0.546491,3.491359 0.765066,0.41767 1.562849,0.799899 2.399533,1.134449 1.146255,-0.847391 2.203205,-2.44257 3.712364,-2.019512 1.506041,0.422181 1.026407,2.17217 1.21233,3.393562 0.904344,0.155157 1.831752,0.264012 2.776421,0.322731 0.637411,-1.124996 0.840238,-2.904723 2.437222,-2.963255 1.599808,-0.05864 2.009694,1.704572 2.782702,2.777439 0.932688,-0.127467 1.84134,-0.305939 2.726171,-0.528103 0.03927,-1.229883 -0.658492,-2.935876 0.7914688,-3.466911 1.45026,-0.531146 2.696017,0.975511 3.938498,1.735901 0.791092,-0.393612 1.542861,-0.833657 2.255058,-1.305593 -0.571176,-1.146349 -2.043412,-2.512238 -0.967351,-3.432682 1.077452,-0.92163 2.96423,0.09179 4.48498995,0.425418 0.536536,-0.595569 1.027546,-1.216605 1.45730705,-1.867925 -1.08855605,-0.892309 -3.137717,-1.715097 -2.594259,-2.889908 0.54233395,-1.172384 2.790362,-0.799011 4.35936,-0.943744 0.199315,-0.703989 0.339148,-1.425936 0.414579,-2.161317 -1.445165,-0.496194 -3.73139705,-0.654087 -3.80658805,-1.897264 -0.07533,-1.245379 2.18968605,-1.564457 3.56789105,-2.16621 -0.163746,-0.7260518 -0.393008,-1.4333968 -0.678402,-2.1221968 -1.579903,-0.03057 -3.771415,0.512604 -4.453582,-0.616122 -0.682309,-1.128963 1.25313795,-2.098727 2.22993195,-3.065943 -0.505632,-0.615829 -1.070912,-1.201045 -1.67715995,-1.755459 -1.472596,0.444635 -3.22721,1.590703 -4.409611,0.753038 -1.183925,-0.838746 0.117908,-2.3075178 0.546491,-3.4913599 -0.765067,-0.4176684 -1.562849,-0.7998974 -2.399533,-1.134447 -1.146256,0.8473913 -2.203205,2.4425692 -3.7123648,2.0195117 -1.50604,-0.4221825 -1.026407,-2.1721692 -1.212329,-3.3935627 -0.904344,-0.1551578 -1.831753,-0.2640123 -2.776422,-0.3227303 z m -1.652034,6.2052312 c 6.8792958,0 12.4624908,4.346264 12.4624908,9.7014808 0,5.355218 -5.583195,9.70148 -12.4624908,9.70148 -6.879295,0 -12.462491,-4.346262 -12.462491,-9.70148 0,-5.3552168 5.583196,-9.7014808 12.462491,-9.7014808 z" id="path5705" style="color:#000000;fill:url(#radialGradient3617);fill-opacity:1;fill-rule:nonzero;stroke:none;stroke-width:0.30000001;marker:none;visibility:visible;display:block;overflow:visible;enable-background:accumulate"/>
      <path d="m 3.5832768,14.263622 0,5.174547 -0.452269,2.160249 0,-5.224787 0.452269,-2.110009 z" id="path5719" style="color:#000000;fill:#6f6f6f;fill-opacity:1;fill-rule:evenodd;stroke:none;stroke-width:1px;marker:none;visibility:visible;display:inline;overflow:visible;enable-background:accumulate"/>
      <path d="m -13.477271,28.280116 0.150756,0.175835 0.150757,-0.07536 -0.08949,5.250371 -0.136647,0.125132 -0.07538,-5.475979 z" id="path5857" style="opacity:0.36571428;color:#000000;fill:url(#linearGradient3619);fill-opacity:1;fill-rule:evenodd;stroke:none;stroke-width:1px;marker:none;visibility:visible;display:inline;overflow:visible;enable-background:accumulate"/>
      <path d="m -21.31658,28.506189 c 0.912506,0.126408 1.837651,0.27778 2.814111,0.276311 l -0.02513,5.275025 c -0.882608,-0.07856 -1.839498,-0.181134 -2.788985,-0.326549 l 0,-5.224787 z" id="path5895" style="color:#000000;fill:url(#linearGradient3621);fill-opacity:1;fill-rule:evenodd;stroke:none;stroke-width:1px;marker:none;visibility:visible;display:inline;overflow:visible;enable-background:accumulate"/>
      <path d="m -26.2664,27.024158 0,5.275025 -2.462347,-1.155481 0.150756,-5.224787 2.311591,1.105243 z" id="path5958" style="color:#000000;fill:url(#linearGradient3623);fill-opacity:1;fill-rule:evenodd;stroke:none;stroke-width:1px;marker:none;visibility:visible;display:inline;overflow:visible;enable-background:accumulate"/>
      <path d="m -32.497646,23.206045 0.05025,5.224786 c -0.552769,-0.299954 -1.155794,-0.874335 -1.708565,-1.708102 l 0,-5.224787 c 0.552771,0.683352 1.105544,1.291488 1.658315,1.708103 z" id="path5960" style="color:#000000;fill:url(#linearGradient3625);fill-opacity:1;fill-rule:evenodd;stroke:none;stroke-width:1px;marker:none;visibility:visible;display:inline;overflow:visible;enable-background:accumulate"/>
      <path d="m -36.367049,23.05533 -0.07538,-5.400621 c -0.201008,-0.482546 -0.427142,-1.159923 -0.628149,-1.909057 l 0,5.199668 c 0.13645,0.930448 0.434556,1.577018 0.703527,2.11001 z" id="path5962" style="color:#000000;fill:#ffffff;fill-opacity:1;fill-rule:evenodd;stroke:none;stroke-width:1px;marker:none;visibility:visible;display:inline;overflow:visible;enable-background:accumulate"/>
      <path d="m -15.197046,-3.1953338 c -0.645203,1.1388432 -0.85051,2.9404772 -2.467021,2.9997319 -1.619367,0.05936 -2.034266,-1.7255532 -2.816725,-2.81163 -0.944092,0.1290371 -1.863853,0.3097046 -2.759502,0.5346059 -0.03976,1.2450209 0.666542,2.9720145 -0.801147,3.5095867 -1.467993,0.5376856 -2.728979,-0.9875178 -3.986652,-1.7572683 -0.800766,0.3984566 -1.561724,0.8439186 -2.282631,1.3216643 0.57816,1.1604614 2.068399,2.5431615 0.979179,3.4749365 -1.090623,0.932976 -3.000473,-0.09291 -4.539827,-0.430655 -0.543096,0.6029 -1.040109,1.231584 -1.475126,1.890919 1.101866,0.903295 3.176081,1.73621 2.625978,2.925482 -0.548964,1.186815 -2.824478,0.808846 -4.412659,0.955362 -0.201754,0.7126578 -0.343297,1.4434878 -0.419648,2.1879208 1.462834,0.502303 3.777017,0.662141 3.853129,1.92062 0.07625,1.260709 -2.216458,1.583715 -3.611514,2.192876 0.165747,0.734991 0.397813,1.451042 0.686697,2.148321 1.599218,0.03095 3.817527,-0.518916 4.508034,0.623707 0.690652,1.142859 -1.268459,2.124563 -2.257197,3.103683 0.511814,0.623409 1.084006,1.215831 1.697666,1.777068 1.490603,-0.450107 3.266669,-1.610283 4.463527,-0.762308 1.198401,0.849072 -0.119349,2.335924 -0.553172,3.534337 0.77442,0.422811 1.581957,0.809745 2.428871,1.148413 1.16027,-0.857821 2.230143,-2.472636 3.757754,-2.044371 1.524455,0.427379 1.038956,2.198909 1.227153,3.435336 0.915401,0.157067 1.854148,0.267262 2.810368,0.326704 0.645204,-1.138845 0.85051,-2.94048 2.467021,-2.999733 1.619368,-0.05936 2.034266,1.725556 2.816725,2.811629 0.944091,-0.129036 1.863853,-0.309705 2.759503,-0.534604 0.03975,-1.245022 -0.666543,-2.972015 0.8011458,-3.509587 1.467992,-0.537685 2.728981,0.987519 3.986653,1.757269 0.800764,-0.398457 1.561725,-0.843918 2.28263,-1.321664 -0.57816,-1.16046 -2.068396,-2.543163 -0.979179,-3.474938 1.090626,-0.932975 3.000473,0.09292 4.53982695,0.430655 0.543097,-0.6029 1.04010905,-1.231581 1.47512505,-1.890919 -1.10186505,-0.903293 -3.176081,-1.736209 -2.625979,-2.925482 0.54896595,-1.186815 2.824479,-0.808847 4.412661,-0.955361 0.201752,-0.712655 0.343295,-1.443489 0.419649,-2.187923 -1.462835,-0.502301 -3.77702105,-0.662138 -3.85313105,-1.920619 -0.07625,-1.260709 2.21645805,-1.583715 3.61151505,-2.192875 -0.165748,-0.7349898 -0.397813,-1.4510418 -0.686697,-2.1483208 -1.59922,-0.03095 -3.81752705,0.518915 -4.508034,-0.623707 -0.690652,-1.142859 1.26845895,-2.124562 2.25719595,-3.103684 -0.511814,-0.623409 -1.084005,-1.215829 -1.69766595,-1.777067 -1.490601,0.450107 -3.266668,1.610283 -4.463526,0.762307 -1.1984,-0.849071 0.11935,-2.335923 0.553173,-3.5343379 -0.774421,-0.4228098 -1.581958,-0.809744 -2.428872,-1.1484118 -1.16027,0.8578226 -2.230143,2.4726367 -3.7577538,2.0443715 -1.524454,-0.4273795 -1.038957,-2.1989081 -1.227152,-3.4353368 -0.915401,-0.1570677 -1.854149,-0.2672622 -2.810369,-0.326703 z" id="path5743" style="opacity:0.83428572;color:#000000;fill:none;stroke:url(#linearGradient3627);stroke-width:1;stroke-linecap:butt;stroke-linejoin:miter;stroke-miterlimit:10;stroke-opacity:1;stroke-dasharray:none;stroke-dashoffset:0;marker:none;visibility:visible;display:block;overflow:visible;enable-background:accumulate"/>
      <path d="m -16.86928,2.7768452 c 7.1800978,0 13.0074208,4.538393 13.0074208,10.1303408 0,5.591949 -5.827323,10.13034 -13.0074208,10.13034 -7.180097,0 -13.007421,-4.538391 -13.007421,-10.13034 0,-5.5919478 5.827324,-10.1303408 13.007421,-10.1303408 z" id="path5739" style="color:#000000;fill:none;stroke:url(#linearGradient3629);stroke-width:1;stroke-linecap:butt;stroke-linejoin:miter;stroke-miterlimit:10;stroke-opacity:1;stroke-dasharray:none;stroke-dashoffset:0;marker:none;visibility:visible;display:block;overflow:visible;enable-background:accumulate"/>
    </g>
  </g>
</svg>